<svg width="1053" height="515" viewBox="0 0 1053 515" fill="none" xmlns="http://www.w3.org/2000/svg">
<g filter="url(#filter0_d_205_61)">
<g filter="url(#filter1_d_205_61)">
<path d="M629.335 226.069C621.327 225.969 613.404 227.729 606.191 231.209C598.978 234.689 592.67 239.796 587.765 246.127V184.253C587.765 182.081 586.902 179.998 585.366 178.462C583.83 176.926 581.747 176.063 579.575 176.063H551.181C549.009 176.063 546.926 176.926 545.39 178.462C543.854 179.998 542.991 182.081 542.991 184.253V361.786C542.991 362.862 543.203 363.927 543.615 364.92C544.026 365.914 544.63 366.817 545.39 367.577C546.151 368.338 547.053 368.941 548.047 369.352C549.041 369.764 550.106 369.976 551.181 369.975H579.575C580.651 369.976 581.716 369.764 582.709 369.352C583.703 368.941 584.606 368.338 585.366 367.577C586.127 366.817 586.73 365.914 587.142 364.92C587.553 363.927 587.765 362.862 587.765 361.786V353.698C599.393 367.071 613.639 373.467 629.338 373.467C663.938 373.467 691.26 347.303 691.26 299.624C691.257 253.687 664.22 226.069 629.335 226.069ZM614.507 333.926C604.914 333.926 593.286 328.984 587.762 321.426V278.399C593.29 270.841 604.914 265.608 614.507 265.608C632.241 265.608 645.614 278.69 645.614 299.621C645.614 320.844 632.241 333.926 614.507 333.926ZM770.879 274.894C767.438 274.894 764.074 275.915 761.212 277.827C758.351 279.739 756.121 282.456 754.804 285.636C753.487 288.815 753.142 292.314 753.814 295.689C754.485 299.064 756.142 302.165 758.576 304.598C761.009 307.032 764.109 308.689 767.485 309.36C770.86 310.031 774.358 309.687 777.538 308.37C780.717 307.053 783.435 304.823 785.347 301.961C787.259 299.1 788.279 295.736 788.279 292.294C788.279 287.68 786.446 283.254 783.183 279.991C779.92 276.728 775.494 274.894 770.879 274.894ZM816.947 184.935V140.274C819.787 139.091 822.129 136.961 823.575 134.245C825.021 131.53 825.482 128.397 824.878 125.38C824.275 122.363 822.645 119.649 820.266 117.698C817.887 115.748 814.905 114.682 811.829 114.682C808.752 114.682 805.771 115.748 803.392 117.698C801.012 119.649 799.382 122.363 798.779 125.38C798.176 128.397 798.636 131.53 800.082 134.245C801.528 136.961 803.87 139.091 806.71 140.274V184.935C778.677 186.272 752.279 198.519 733.155 219.06C714.032 239.601 703.701 266.807 704.369 294.863C705.038 322.92 716.653 349.603 736.732 369.21C756.812 388.817 783.764 399.793 811.829 399.793C839.894 399.793 866.845 388.817 886.925 369.21C907.005 349.603 918.62 322.92 919.288 294.863C919.957 266.807 909.625 239.601 890.502 219.06C871.379 198.519 844.98 186.272 816.947 184.935ZM902.94 292.302C902.94 322.833 862.148 347.583 811.828 347.583C761.508 347.583 720.717 322.833 720.717 292.302C720.717 261.771 761.509 237.021 811.828 237.021C862.147 237.021 902.94 261.767 902.94 292.297V292.302ZM852.777 309.702C856.219 309.702 859.583 308.682 862.444 306.77C865.306 304.858 867.536 302.141 868.853 298.961C870.17 295.782 870.514 292.283 869.843 288.908C869.171 285.533 867.514 282.432 865.081 279.999C862.647 277.565 859.547 275.908 856.172 275.237C852.797 274.565 849.298 274.91 846.119 276.227C842.939 277.544 840.222 279.774 838.31 282.635C836.398 285.497 835.377 288.861 835.377 292.302C835.377 296.917 837.211 301.343 840.474 304.605C843.737 307.868 848.163 309.701 852.777 309.701V309.702ZM1027.76 339.477C1027.23 337.464 1025.94 335.731 1024.18 334.628C1022.41 333.526 1020.29 333.136 1018.24 333.539C1016.87 333.793 1015.48 333.923 1014.09 333.926C1006.24 333.926 1001.59 327.82 1001.59 319.681V268.515H1021.94C1024.1 268.515 1026.17 267.657 1027.69 266.13C1029.22 264.603 1030.08 262.532 1030.08 260.372V237.701C1030.08 235.542 1029.22 233.471 1027.69 231.944C1026.17 230.417 1024.1 229.559 1021.94 229.558H1001.59V199.326C1001.59 197.167 1000.73 195.096 999.2 193.568C997.673 192.041 995.602 191.183 993.442 191.183H965.248C963.089 191.183 961.017 192.041 959.49 193.568C957.963 195.096 957.105 197.167 957.105 199.326V229.558H941.991C940.922 229.558 939.863 229.769 938.875 230.178C937.887 230.588 936.989 231.187 936.233 231.943C935.477 232.7 934.877 233.597 934.468 234.585C934.059 235.573 933.848 236.632 933.848 237.701V260.372C933.848 261.442 934.059 262.501 934.468 263.489C934.877 264.477 935.477 265.374 936.233 266.13C936.989 266.887 937.887 267.486 938.875 267.896C939.863 268.305 940.922 268.515 941.991 268.515H957.106V332.182C957.106 359.219 972.514 373.464 1001.01 373.464C1013.19 373.464 1022.39 371.264 1028.61 368.018C1030.24 367.168 1031.55 365.788 1032.3 364.103C1033.05 362.418 1033.21 360.528 1032.75 358.74L1027.76 339.477Z" fill="white"/>
</g>
<g filter="url(#filter2_d_205_61)">
<path d="M11.7202 374.033V168.955H118.361V180.087H23.439V266.22H90.8218V277.353H23.439V362.9H118.361V374.033H11.7202ZM133.009 168.955H144.435L201.271 364.072L197.462 374.033H192.482L133.009 168.955ZM201.271 325.693L255.177 168.955H266.603L208.302 340.341H205.373L201.271 325.693ZM278.322 374.033L318.458 198.544H323.439L326.369 211.728L290.041 374.033H278.322ZM311.72 334.482L314.064 323.349H363.869L330.177 169.248H341.896L386.427 374.033H374.708L366.505 334.482H311.72ZM401.076 334.189L412.501 332.138C412.501 342.88 418.068 351.669 429.201 358.505C435.841 362.412 442.287 364.365 448.537 364.365V375.498C432.326 375.498 419.337 369.345 409.572 357.041C403.908 349.619 401.076 342.001 401.076 334.189ZM402.248 267.099C402.248 249.326 410.06 236.435 425.685 228.427C432.912 224.521 440.333 222.568 447.951 222.568V233.701C439.162 233.701 431.056 237.412 423.634 244.833C417.189 251.474 413.966 258.896 413.966 267.099C413.966 274.326 418.947 279.892 428.908 283.798C432.228 284.97 445.802 288.388 469.63 294.052C472.755 294.833 475.587 295.517 478.126 296.103C499.806 301.962 510.744 312.998 510.939 329.208C510.939 346.201 503.81 358.994 489.552 367.587C480.958 372.861 471.291 375.498 460.548 375.498V364.658C471.486 364.658 481.056 360.751 489.259 352.939C495.9 346.103 499.22 338.193 499.22 329.208C499.22 320.029 491.212 312.9 475.197 307.822C472.658 307.041 459.279 303.818 435.06 298.154C433.693 297.763 432.423 297.47 431.251 297.275C412.111 292.587 402.443 282.529 402.248 267.099ZM460.255 233.994V222.568C476.466 222.568 489.455 228.623 499.22 240.732C505.275 248.349 508.302 256.259 508.302 264.462L496.876 266.22C496.876 254.306 490.333 245.029 477.248 238.388C470.998 235.458 465.333 233.994 460.255 233.994Z" fill="white"/>
</g>
</g>
<defs>
<filter id="filter0_d_205_61" x="11.7202" y="114.682" width="1040.29" height="303.111" filterUnits="userSpaceOnUse" color-interpolation-filters="sRGB">
<feFlood flood-opacity="0" result="BackgroundImageFix"/>
<feColorMatrix in="SourceAlpha" type="matrix" values="0 0 0 0 0 0 0 0 0 0 0 0 0 0 0 0 0 0 127 0" result="hardAlpha"/>
<feOffset dx="15" dy="14"/>
<feGaussianBlur stdDeviation="2"/>
<feComposite in2="hardAlpha" operator="out"/>
<feColorMatrix type="matrix" values="0 0 0 0 0 0 0 0 0 0 0 0 0 0 0 0 0 0 0.25 0"/>
<feBlend mode="normal" in2="BackgroundImageFix" result="effect1_dropShadow_205_61"/>
<feBlend mode="normal" in="SourceGraphic" in2="effect1_dropShadow_205_61" result="shape"/>
</filter>
<filter id="filter1_d_205_61" x="538.991" y="114.682" width="498.018" height="293.111" filterUnits="userSpaceOnUse" color-interpolation-filters="sRGB">
<feFlood flood-opacity="0" result="BackgroundImageFix"/>
<feColorMatrix in="SourceAlpha" type="matrix" values="0 0 0 0 0 0 0 0 0 0 0 0 0 0 0 0 0 0 127 0" result="hardAlpha"/>
<feOffset dy="4"/>
<feGaussianBlur stdDeviation="2"/>
<feComposite in2="hardAlpha" operator="out"/>
<feColorMatrix type="matrix" values="0 0 0 0 0 0 0 0 0 0 0 0 0 0 0 0 0 0 0.25 0"/>
<feBlend mode="normal" in2="BackgroundImageFix" result="effect1_dropShadow_205_61"/>
<feBlend mode="normal" in="SourceGraphic" in2="effect1_dropShadow_205_61" result="shape"/>
</filter>
<filter id="filter2_d_205_61" x="7.72021" y="168.955" width="507.219" height="214.543" filterUnits="userSpaceOnUse" color-interpolation-filters="sRGB">
<feFlood flood-opacity="0" result="BackgroundImageFix"/>
<feColorMatrix in="SourceAlpha" type="matrix" values="0 0 0 0 0 0 0 0 0 0 0 0 0 0 0 0 0 0 127 0" result="hardAlpha"/>
<feOffset dy="4"/>
<feGaussianBlur stdDeviation="2"/>
<feComposite in2="hardAlpha" operator="out"/>
<feColorMatrix type="matrix" values="0 0 0 0 0 0 0 0 0 0 0 0 0 0 0 0 0 0 0.25 0"/>
<feBlend mode="normal" in2="BackgroundImageFix" result="effect1_dropShadow_205_61"/>
<feBlend mode="normal" in="SourceGraphic" in2="effect1_dropShadow_205_61" result="shape"/>
</filter>
</defs>
</svg>
